<mxfile host="Electron" modified="2025-04-28T13:51:23.459Z" agent="Mozilla/5.0 (X11; Linux x86_64) AppleWebKit/537.36 (KHTML, like Gecko) draw.io/21.5.1 Chrome/112.0.5615.204 Electron/24.6.0 Safari/537.36" etag="BTFLUcfXz99CvN5L043i" version="21.5.1" type="device">
  <diagram name="Page-1" id="3LACEphSYZLmzGuY-tGZ">
    <mxGraphModel dx="2037" dy="1130" grid="1" gridSize="10" guides="1" tooltips="1" connect="1" arrows="1" fold="1" page="1" pageScale="1" pageWidth="1" pageHeight="20" math="0" shadow="0">
      <root>
        <mxCell id="0" />
        <mxCell id="1" parent="0" />
        <mxCell id="g8agrSDhPhSuaq96xa5Z-92" value="" style="rounded=0;whiteSpace=wrap;html=1;fillColor=#EFE6FF;strokeColor=#56517e;strokeWidth=2;dashed=1;" vertex="1" parent="1">
          <mxGeometry x="-543" y="-243" width="483" height="353" as="geometry" />
        </mxCell>
        <mxCell id="g8agrSDhPhSuaq96xa5Z-93" style="rounded=0;orthogonalLoop=1;jettySize=auto;html=1;exitX=0.5;exitY=1;exitDx=0;exitDy=0;entryX=0.417;entryY=0.001;entryDx=0;entryDy=0;startArrow=classic;startFill=1;entryPerimeter=0;" edge="1" parent="1" source="g8agrSDhPhSuaq96xa5Z-1" target="g8agrSDhPhSuaq96xa5Z-40">
          <mxGeometry relative="1" as="geometry">
            <mxPoint x="-432" y="-155" as="sourcePoint" />
            <mxPoint x="-431" y="-120" as="targetPoint" />
          </mxGeometry>
        </mxCell>
        <mxCell id="g8agrSDhPhSuaq96xa5Z-90" value="" style="endArrow=classic;html=1;rounded=0;exitX=0.114;exitY=0.003;exitDx=0;exitDy=0;exitPerimeter=0;" edge="1" parent="1" source="g8agrSDhPhSuaq96xa5Z-40">
          <mxGeometry width="50" height="50" relative="1" as="geometry">
            <mxPoint x="-500" y="-150" as="sourcePoint" />
            <mxPoint x="-560" y="-170" as="targetPoint" />
            <Array as="points">
              <mxPoint x="-490" y="-160" />
              <mxPoint x="-490" y="-170" />
              <mxPoint x="-500" y="-170" />
            </Array>
          </mxGeometry>
        </mxCell>
        <mxCell id="g8agrSDhPhSuaq96xa5Z-72" style="edgeStyle=orthogonalEdgeStyle;rounded=0;orthogonalLoop=1;jettySize=auto;html=1;exitX=0.25;exitY=1;exitDx=0;exitDy=0;entryX=0.25;entryY=0;entryDx=0;entryDy=0;startArrow=classic;startFill=1;" edge="1" parent="1" source="g8agrSDhPhSuaq96xa5Z-1" target="g8agrSDhPhSuaq96xa5Z-39">
          <mxGeometry relative="1" as="geometry" />
        </mxCell>
        <mxCell id="g8agrSDhPhSuaq96xa5Z-1" value="&lt;font style=&quot;font-size: 19px;&quot;&gt;&lt;b&gt;Route&lt;br&gt;Compute&lt;/b&gt;&lt;/font&gt;" style="rounded=0;whiteSpace=wrap;html=1;fillColor=#f5f5f5;fontColor=#333333;strokeColor=#666666;strokeWidth=2;" vertex="1" parent="1">
          <mxGeometry x="-498" y="-235" width="120" height="60" as="geometry" />
        </mxCell>
        <mxCell id="g8agrSDhPhSuaq96xa5Z-74" style="edgeStyle=orthogonalEdgeStyle;rounded=0;orthogonalLoop=1;jettySize=auto;html=1;exitX=0;exitY=0.5;exitDx=0;exitDy=0;entryX=0.858;entryY=0.004;entryDx=0;entryDy=0;entryPerimeter=0;" edge="1" parent="1" source="g8agrSDhPhSuaq96xa5Z-2" target="g8agrSDhPhSuaq96xa5Z-39">
          <mxGeometry relative="1" as="geometry" />
        </mxCell>
        <mxCell id="g8agrSDhPhSuaq96xa5Z-2" value="&lt;font style=&quot;font-size: 19px;&quot;&gt;&lt;b&gt;VC&lt;br&gt;Allocator&lt;/b&gt;&lt;/font&gt;" style="rounded=0;whiteSpace=wrap;html=1;fillColor=#f5f5f5;fontColor=#333333;strokeColor=#666666;strokeWidth=2;" vertex="1" parent="1">
          <mxGeometry x="-233" y="-233" width="120" height="50" as="geometry" />
        </mxCell>
        <mxCell id="g8agrSDhPhSuaq96xa5Z-73" style="edgeStyle=orthogonalEdgeStyle;rounded=0;orthogonalLoop=1;jettySize=auto;html=1;exitX=0;exitY=0.458;exitDx=0;exitDy=0;exitPerimeter=0;" edge="1" parent="1" source="g8agrSDhPhSuaq96xa5Z-3">
          <mxGeometry relative="1" as="geometry">
            <mxPoint x="-354" y="-140" as="targetPoint" />
            <Array as="points">
              <mxPoint x="-354" y="-160" />
            </Array>
          </mxGeometry>
        </mxCell>
        <mxCell id="g8agrSDhPhSuaq96xa5Z-75" style="rounded=0;orthogonalLoop=1;jettySize=auto;html=1;exitX=0.5;exitY=1;exitDx=0;exitDy=0;entryX=0.5;entryY=0;entryDx=0;entryDy=0;startArrow=classic;startFill=1;" edge="1" parent="1" source="g8agrSDhPhSuaq96xa5Z-3" target="g8agrSDhPhSuaq96xa5Z-4">
          <mxGeometry relative="1" as="geometry" />
        </mxCell>
        <mxCell id="g8agrSDhPhSuaq96xa5Z-3" value="&lt;font style=&quot;font-size: 19px;&quot;&gt;&lt;b&gt;Switch&lt;br&gt;Allocator&lt;/b&gt;&lt;/font&gt;" style="rounded=0;whiteSpace=wrap;html=1;fillColor=#f5f5f5;fontColor=#333333;strokeColor=#666666;strokeWidth=2;" vertex="1" parent="1">
          <mxGeometry x="-233" y="-183" width="120" height="50" as="geometry" />
        </mxCell>
        <mxCell id="g8agrSDhPhSuaq96xa5Z-13" value="" style="group" vertex="1" connectable="0" parent="1">
          <mxGeometry x="-266" y="-110" width="187" height="180" as="geometry" />
        </mxCell>
        <mxCell id="g8agrSDhPhSuaq96xa5Z-4" value="" style="rounded=1;whiteSpace=wrap;html=1;" vertex="1" parent="g8agrSDhPhSuaq96xa5Z-13">
          <mxGeometry width="187" height="180" as="geometry" />
        </mxCell>
        <mxCell id="g8agrSDhPhSuaq96xa5Z-12" value="" style="group;strokeWidth=6;" vertex="1" connectable="0" parent="g8agrSDhPhSuaq96xa5Z-13">
          <mxGeometry x="23" y="40" width="137" height="100" as="geometry" />
        </mxCell>
        <mxCell id="g8agrSDhPhSuaq96xa5Z-5" value="" style="endArrow=none;html=1;rounded=0;" edge="1" parent="g8agrSDhPhSuaq96xa5Z-12">
          <mxGeometry width="50" height="50" relative="1" as="geometry">
            <mxPoint x="34.25" y="100" as="sourcePoint" />
            <mxPoint x="102.75" as="targetPoint" />
          </mxGeometry>
        </mxCell>
        <mxCell id="g8agrSDhPhSuaq96xa5Z-6" value="" style="endArrow=none;html=1;rounded=0;" edge="1" parent="g8agrSDhPhSuaq96xa5Z-12">
          <mxGeometry width="50" height="50" relative="1" as="geometry">
            <mxPoint x="34.25" as="sourcePoint" />
            <mxPoint x="102.75" y="100" as="targetPoint" />
          </mxGeometry>
        </mxCell>
        <mxCell id="g8agrSDhPhSuaq96xa5Z-7" value="" style="endArrow=none;html=1;rounded=0;" edge="1" parent="g8agrSDhPhSuaq96xa5Z-12">
          <mxGeometry width="50" height="50" relative="1" as="geometry">
            <mxPoint as="sourcePoint" />
            <mxPoint x="34.25" as="targetPoint" />
          </mxGeometry>
        </mxCell>
        <mxCell id="g8agrSDhPhSuaq96xa5Z-8" value="" style="endArrow=none;html=1;rounded=0;" edge="1" parent="g8agrSDhPhSuaq96xa5Z-12">
          <mxGeometry width="50" height="50" relative="1" as="geometry">
            <mxPoint y="100" as="sourcePoint" />
            <mxPoint x="34.25" y="100" as="targetPoint" />
          </mxGeometry>
        </mxCell>
        <mxCell id="g8agrSDhPhSuaq96xa5Z-9" value="" style="endArrow=none;html=1;rounded=0;" edge="1" parent="g8agrSDhPhSuaq96xa5Z-12">
          <mxGeometry width="50" height="50" relative="1" as="geometry">
            <mxPoint x="102.75" as="sourcePoint" />
            <mxPoint x="137" as="targetPoint" />
          </mxGeometry>
        </mxCell>
        <mxCell id="g8agrSDhPhSuaq96xa5Z-10" value="" style="endArrow=none;html=1;rounded=0;" edge="1" parent="g8agrSDhPhSuaq96xa5Z-12">
          <mxGeometry width="50" height="50" relative="1" as="geometry">
            <mxPoint x="102.75" y="100" as="sourcePoint" />
            <mxPoint x="137" y="100" as="targetPoint" />
          </mxGeometry>
        </mxCell>
        <mxCell id="g8agrSDhPhSuaq96xa5Z-81" value="&lt;b&gt;&lt;font style=&quot;font-size: 14px;&quot;&gt;Crossbar&lt;/font&gt;&lt;/b&gt;" style="text;html=1;align=center;verticalAlign=middle;resizable=0;points=[];autosize=1;strokeColor=none;fillColor=none;" vertex="1" parent="g8agrSDhPhSuaq96xa5Z-13">
          <mxGeometry x="53" y="145" width="80" height="30" as="geometry" />
        </mxCell>
        <mxCell id="g8agrSDhPhSuaq96xa5Z-66" value="" style="group" vertex="1" connectable="0" parent="1">
          <mxGeometry x="-510" y="-140" width="170" height="105" as="geometry" />
        </mxCell>
        <mxCell id="g8agrSDhPhSuaq96xa5Z-39" value="" style="rounded=0;whiteSpace=wrap;html=1;fillColor=#C4C4C4;fontColor=#333333;strokeColor=#030303;" vertex="1" parent="g8agrSDhPhSuaq96xa5Z-66">
          <mxGeometry width="170" height="100" as="geometry" />
        </mxCell>
        <mxCell id="g8agrSDhPhSuaq96xa5Z-38" value="" style="group" vertex="1" connectable="0" parent="g8agrSDhPhSuaq96xa5Z-66">
          <mxGeometry x="5" y="5.75" width="154.75" height="99.25" as="geometry" />
        </mxCell>
        <mxCell id="g8agrSDhPhSuaq96xa5Z-33" value="" style="group" vertex="1" connectable="0" parent="g8agrSDhPhSuaq96xa5Z-38">
          <mxGeometry y="14.25" width="95" height="60" as="geometry" />
        </mxCell>
        <mxCell id="g8agrSDhPhSuaq96xa5Z-19" value="" style="group" vertex="1" connectable="0" parent="g8agrSDhPhSuaq96xa5Z-33">
          <mxGeometry width="95" height="10" as="geometry" />
        </mxCell>
        <mxCell id="g8agrSDhPhSuaq96xa5Z-14" value="" style="rounded=0;whiteSpace=wrap;html=1;" vertex="1" parent="g8agrSDhPhSuaq96xa5Z-19">
          <mxGeometry x="76" width="19" height="10" as="geometry" />
        </mxCell>
        <mxCell id="g8agrSDhPhSuaq96xa5Z-15" value="" style="rounded=0;whiteSpace=wrap;html=1;" vertex="1" parent="g8agrSDhPhSuaq96xa5Z-19">
          <mxGeometry x="57" width="19" height="10" as="geometry" />
        </mxCell>
        <mxCell id="g8agrSDhPhSuaq96xa5Z-16" value="" style="rounded=0;whiteSpace=wrap;html=1;" vertex="1" parent="g8agrSDhPhSuaq96xa5Z-19">
          <mxGeometry x="38" width="19" height="10" as="geometry" />
        </mxCell>
        <mxCell id="g8agrSDhPhSuaq96xa5Z-17" value="" style="rounded=0;whiteSpace=wrap;html=1;" vertex="1" parent="g8agrSDhPhSuaq96xa5Z-19">
          <mxGeometry x="19" width="19" height="10" as="geometry" />
        </mxCell>
        <mxCell id="g8agrSDhPhSuaq96xa5Z-18" value="" style="rounded=0;whiteSpace=wrap;html=1;" vertex="1" parent="g8agrSDhPhSuaq96xa5Z-19">
          <mxGeometry width="19" height="10" as="geometry" />
        </mxCell>
        <mxCell id="g8agrSDhPhSuaq96xa5Z-20" value="" style="group" vertex="1" connectable="0" parent="g8agrSDhPhSuaq96xa5Z-33">
          <mxGeometry y="20" width="95" height="10" as="geometry" />
        </mxCell>
        <mxCell id="g8agrSDhPhSuaq96xa5Z-21" value="" style="rounded=0;whiteSpace=wrap;html=1;" vertex="1" parent="g8agrSDhPhSuaq96xa5Z-20">
          <mxGeometry x="76" width="19" height="10" as="geometry" />
        </mxCell>
        <mxCell id="g8agrSDhPhSuaq96xa5Z-22" value="" style="rounded=0;whiteSpace=wrap;html=1;" vertex="1" parent="g8agrSDhPhSuaq96xa5Z-20">
          <mxGeometry x="57" width="19" height="10" as="geometry" />
        </mxCell>
        <mxCell id="g8agrSDhPhSuaq96xa5Z-23" value="" style="rounded=0;whiteSpace=wrap;html=1;" vertex="1" parent="g8agrSDhPhSuaq96xa5Z-20">
          <mxGeometry x="38" width="19" height="10" as="geometry" />
        </mxCell>
        <mxCell id="g8agrSDhPhSuaq96xa5Z-24" value="" style="rounded=0;whiteSpace=wrap;html=1;" vertex="1" parent="g8agrSDhPhSuaq96xa5Z-20">
          <mxGeometry x="19" width="19" height="10" as="geometry" />
        </mxCell>
        <mxCell id="g8agrSDhPhSuaq96xa5Z-25" value="" style="rounded=0;whiteSpace=wrap;html=1;" vertex="1" parent="g8agrSDhPhSuaq96xa5Z-20">
          <mxGeometry width="19" height="10" as="geometry" />
        </mxCell>
        <mxCell id="g8agrSDhPhSuaq96xa5Z-26" value="" style="group" vertex="1" connectable="0" parent="g8agrSDhPhSuaq96xa5Z-33">
          <mxGeometry y="50" width="95" height="10" as="geometry" />
        </mxCell>
        <mxCell id="g8agrSDhPhSuaq96xa5Z-27" value="" style="rounded=0;whiteSpace=wrap;html=1;" vertex="1" parent="g8agrSDhPhSuaq96xa5Z-26">
          <mxGeometry x="76" width="19" height="10" as="geometry" />
        </mxCell>
        <mxCell id="g8agrSDhPhSuaq96xa5Z-28" value="" style="rounded=0;whiteSpace=wrap;html=1;" vertex="1" parent="g8agrSDhPhSuaq96xa5Z-26">
          <mxGeometry x="57" width="19" height="10" as="geometry" />
        </mxCell>
        <mxCell id="g8agrSDhPhSuaq96xa5Z-29" value="" style="rounded=0;whiteSpace=wrap;html=1;" vertex="1" parent="g8agrSDhPhSuaq96xa5Z-26">
          <mxGeometry x="38" width="19" height="10" as="geometry" />
        </mxCell>
        <mxCell id="g8agrSDhPhSuaq96xa5Z-30" value="" style="rounded=0;whiteSpace=wrap;html=1;" vertex="1" parent="g8agrSDhPhSuaq96xa5Z-26">
          <mxGeometry x="19" width="19" height="10" as="geometry" />
        </mxCell>
        <mxCell id="g8agrSDhPhSuaq96xa5Z-31" value="" style="rounded=0;whiteSpace=wrap;html=1;" vertex="1" parent="g8agrSDhPhSuaq96xa5Z-26">
          <mxGeometry width="19" height="10" as="geometry" />
        </mxCell>
        <mxCell id="g8agrSDhPhSuaq96xa5Z-32" value="&lt;font style=&quot;font-size: 15px;&quot;&gt;...&lt;/font&gt;" style="text;html=1;align=center;verticalAlign=middle;resizable=0;points=[];autosize=1;strokeColor=none;fillColor=none;rotation=90;" vertex="1" parent="g8agrSDhPhSuaq96xa5Z-33">
          <mxGeometry x="33" y="25" width="40" height="30" as="geometry" />
        </mxCell>
        <mxCell id="g8agrSDhPhSuaq96xa5Z-34" value="" style="shape=trapezoid;perimeter=trapezoidPerimeter;whiteSpace=wrap;html=1;fixedSize=1;rotation=90;" vertex="1" parent="g8agrSDhPhSuaq96xa5Z-38">
          <mxGeometry x="93" y="26.75" width="88.5" height="35" as="geometry" />
        </mxCell>
        <mxCell id="g8agrSDhPhSuaq96xa5Z-35" style="edgeStyle=orthogonalEdgeStyle;rounded=0;orthogonalLoop=1;jettySize=auto;html=1;exitX=1;exitY=0.5;exitDx=0;exitDy=0;entryX=0.224;entryY=1.001;entryDx=0;entryDy=0;entryPerimeter=0;" edge="1" parent="g8agrSDhPhSuaq96xa5Z-38" source="g8agrSDhPhSuaq96xa5Z-14" target="g8agrSDhPhSuaq96xa5Z-34">
          <mxGeometry relative="1" as="geometry" />
        </mxCell>
        <mxCell id="g8agrSDhPhSuaq96xa5Z-36" style="edgeStyle=orthogonalEdgeStyle;rounded=0;orthogonalLoop=1;jettySize=auto;html=1;exitX=1;exitY=0.5;exitDx=0;exitDy=0;entryX=0.448;entryY=1.015;entryDx=0;entryDy=0;entryPerimeter=0;" edge="1" parent="g8agrSDhPhSuaq96xa5Z-38" source="g8agrSDhPhSuaq96xa5Z-21" target="g8agrSDhPhSuaq96xa5Z-34">
          <mxGeometry relative="1" as="geometry" />
        </mxCell>
        <mxCell id="g8agrSDhPhSuaq96xa5Z-37" style="edgeStyle=orthogonalEdgeStyle;rounded=0;orthogonalLoop=1;jettySize=auto;html=1;exitX=1;exitY=0.5;exitDx=0;exitDy=0;entryX=0.775;entryY=1.01;entryDx=0;entryDy=0;entryPerimeter=0;" edge="1" parent="g8agrSDhPhSuaq96xa5Z-38" source="g8agrSDhPhSuaq96xa5Z-27" target="g8agrSDhPhSuaq96xa5Z-34">
          <mxGeometry relative="1" as="geometry" />
        </mxCell>
        <mxCell id="g8agrSDhPhSuaq96xa5Z-83" value="&lt;font style=&quot;font-size: 15px;&quot;&gt;&lt;b&gt;Input Buffer&lt;/b&gt;&lt;/font&gt;" style="text;html=1;align=center;verticalAlign=middle;resizable=0;points=[];autosize=1;strokeColor=none;fillColor=none;" vertex="1" parent="g8agrSDhPhSuaq96xa5Z-38">
          <mxGeometry x="10" y="68.25" width="110" height="30" as="geometry" />
        </mxCell>
        <mxCell id="g8agrSDhPhSuaq96xa5Z-67" value="" style="group" vertex="1" connectable="0" parent="1">
          <mxGeometry x="-509" width="170" height="105" as="geometry" />
        </mxCell>
        <mxCell id="g8agrSDhPhSuaq96xa5Z-40" value="" style="rounded=0;whiteSpace=wrap;html=1;fillColor=#C4C4C4;fontColor=#333333;strokeColor=#030303;" vertex="1" parent="g8agrSDhPhSuaq96xa5Z-67">
          <mxGeometry width="170" height="100" as="geometry" />
        </mxCell>
        <mxCell id="g8agrSDhPhSuaq96xa5Z-41" value="" style="group" vertex="1" connectable="0" parent="g8agrSDhPhSuaq96xa5Z-67">
          <mxGeometry x="7" y="6" width="154.75" height="88.5" as="geometry" />
        </mxCell>
        <mxCell id="g8agrSDhPhSuaq96xa5Z-42" value="" style="group" vertex="1" connectable="0" parent="g8agrSDhPhSuaq96xa5Z-41">
          <mxGeometry y="14.25" width="95" height="60" as="geometry" />
        </mxCell>
        <mxCell id="g8agrSDhPhSuaq96xa5Z-43" value="" style="group" vertex="1" connectable="0" parent="g8agrSDhPhSuaq96xa5Z-42">
          <mxGeometry width="95" height="10" as="geometry" />
        </mxCell>
        <mxCell id="g8agrSDhPhSuaq96xa5Z-44" value="" style="rounded=0;whiteSpace=wrap;html=1;" vertex="1" parent="g8agrSDhPhSuaq96xa5Z-43">
          <mxGeometry x="76" width="19" height="10" as="geometry" />
        </mxCell>
        <mxCell id="g8agrSDhPhSuaq96xa5Z-45" value="" style="rounded=0;whiteSpace=wrap;html=1;" vertex="1" parent="g8agrSDhPhSuaq96xa5Z-43">
          <mxGeometry x="57" width="19" height="10" as="geometry" />
        </mxCell>
        <mxCell id="g8agrSDhPhSuaq96xa5Z-46" value="" style="rounded=0;whiteSpace=wrap;html=1;" vertex="1" parent="g8agrSDhPhSuaq96xa5Z-43">
          <mxGeometry x="38" width="19" height="10" as="geometry" />
        </mxCell>
        <mxCell id="g8agrSDhPhSuaq96xa5Z-47" value="" style="rounded=0;whiteSpace=wrap;html=1;" vertex="1" parent="g8agrSDhPhSuaq96xa5Z-43">
          <mxGeometry x="19" width="19" height="10" as="geometry" />
        </mxCell>
        <mxCell id="g8agrSDhPhSuaq96xa5Z-48" value="" style="rounded=0;whiteSpace=wrap;html=1;" vertex="1" parent="g8agrSDhPhSuaq96xa5Z-43">
          <mxGeometry width="19" height="10" as="geometry" />
        </mxCell>
        <mxCell id="g8agrSDhPhSuaq96xa5Z-49" value="" style="group" vertex="1" connectable="0" parent="g8agrSDhPhSuaq96xa5Z-42">
          <mxGeometry y="20" width="95" height="10" as="geometry" />
        </mxCell>
        <mxCell id="g8agrSDhPhSuaq96xa5Z-50" value="" style="rounded=0;whiteSpace=wrap;html=1;" vertex="1" parent="g8agrSDhPhSuaq96xa5Z-49">
          <mxGeometry x="76" width="19" height="10" as="geometry" />
        </mxCell>
        <mxCell id="g8agrSDhPhSuaq96xa5Z-51" value="" style="rounded=0;whiteSpace=wrap;html=1;" vertex="1" parent="g8agrSDhPhSuaq96xa5Z-49">
          <mxGeometry x="57" width="19" height="10" as="geometry" />
        </mxCell>
        <mxCell id="g8agrSDhPhSuaq96xa5Z-52" value="" style="rounded=0;whiteSpace=wrap;html=1;" vertex="1" parent="g8agrSDhPhSuaq96xa5Z-49">
          <mxGeometry x="38" width="19" height="10" as="geometry" />
        </mxCell>
        <mxCell id="g8agrSDhPhSuaq96xa5Z-53" value="" style="rounded=0;whiteSpace=wrap;html=1;" vertex="1" parent="g8agrSDhPhSuaq96xa5Z-49">
          <mxGeometry x="19" width="19" height="10" as="geometry" />
        </mxCell>
        <mxCell id="g8agrSDhPhSuaq96xa5Z-54" value="" style="rounded=0;whiteSpace=wrap;html=1;" vertex="1" parent="g8agrSDhPhSuaq96xa5Z-49">
          <mxGeometry width="19" height="10" as="geometry" />
        </mxCell>
        <mxCell id="g8agrSDhPhSuaq96xa5Z-55" value="" style="group" vertex="1" connectable="0" parent="g8agrSDhPhSuaq96xa5Z-42">
          <mxGeometry y="50" width="95" height="10" as="geometry" />
        </mxCell>
        <mxCell id="g8agrSDhPhSuaq96xa5Z-56" value="" style="rounded=0;whiteSpace=wrap;html=1;" vertex="1" parent="g8agrSDhPhSuaq96xa5Z-55">
          <mxGeometry x="76" width="19" height="10" as="geometry" />
        </mxCell>
        <mxCell id="g8agrSDhPhSuaq96xa5Z-57" value="" style="rounded=0;whiteSpace=wrap;html=1;" vertex="1" parent="g8agrSDhPhSuaq96xa5Z-55">
          <mxGeometry x="57" width="19" height="10" as="geometry" />
        </mxCell>
        <mxCell id="g8agrSDhPhSuaq96xa5Z-58" value="" style="rounded=0;whiteSpace=wrap;html=1;" vertex="1" parent="g8agrSDhPhSuaq96xa5Z-55">
          <mxGeometry x="38" width="19" height="10" as="geometry" />
        </mxCell>
        <mxCell id="g8agrSDhPhSuaq96xa5Z-59" value="" style="rounded=0;whiteSpace=wrap;html=1;" vertex="1" parent="g8agrSDhPhSuaq96xa5Z-55">
          <mxGeometry x="19" width="19" height="10" as="geometry" />
        </mxCell>
        <mxCell id="g8agrSDhPhSuaq96xa5Z-60" value="" style="rounded=0;whiteSpace=wrap;html=1;" vertex="1" parent="g8agrSDhPhSuaq96xa5Z-55">
          <mxGeometry width="19" height="10" as="geometry" />
        </mxCell>
        <mxCell id="g8agrSDhPhSuaq96xa5Z-61" value="&lt;font style=&quot;font-size: 15px;&quot;&gt;...&lt;/font&gt;" style="text;html=1;align=center;verticalAlign=middle;resizable=0;points=[];autosize=1;strokeColor=none;fillColor=none;rotation=90;" vertex="1" parent="g8agrSDhPhSuaq96xa5Z-42">
          <mxGeometry x="33" y="25" width="40" height="30" as="geometry" />
        </mxCell>
        <mxCell id="g8agrSDhPhSuaq96xa5Z-62" value="" style="shape=trapezoid;perimeter=trapezoidPerimeter;whiteSpace=wrap;html=1;fixedSize=1;rotation=90;" vertex="1" parent="g8agrSDhPhSuaq96xa5Z-41">
          <mxGeometry x="93" y="26.75" width="88.5" height="35" as="geometry" />
        </mxCell>
        <mxCell id="g8agrSDhPhSuaq96xa5Z-63" style="edgeStyle=orthogonalEdgeStyle;rounded=0;orthogonalLoop=1;jettySize=auto;html=1;exitX=1;exitY=0.5;exitDx=0;exitDy=0;entryX=0.224;entryY=1.001;entryDx=0;entryDy=0;entryPerimeter=0;" edge="1" parent="g8agrSDhPhSuaq96xa5Z-41" source="g8agrSDhPhSuaq96xa5Z-44" target="g8agrSDhPhSuaq96xa5Z-62">
          <mxGeometry relative="1" as="geometry" />
        </mxCell>
        <mxCell id="g8agrSDhPhSuaq96xa5Z-64" style="edgeStyle=orthogonalEdgeStyle;rounded=0;orthogonalLoop=1;jettySize=auto;html=1;exitX=1;exitY=0.5;exitDx=0;exitDy=0;entryX=0.448;entryY=1.015;entryDx=0;entryDy=0;entryPerimeter=0;" edge="1" parent="g8agrSDhPhSuaq96xa5Z-41" source="g8agrSDhPhSuaq96xa5Z-50" target="g8agrSDhPhSuaq96xa5Z-62">
          <mxGeometry relative="1" as="geometry" />
        </mxCell>
        <mxCell id="g8agrSDhPhSuaq96xa5Z-65" style="edgeStyle=orthogonalEdgeStyle;rounded=0;orthogonalLoop=1;jettySize=auto;html=1;exitX=1;exitY=0.5;exitDx=0;exitDy=0;entryX=0.775;entryY=1.01;entryDx=0;entryDy=0;entryPerimeter=0;" edge="1" parent="g8agrSDhPhSuaq96xa5Z-41" source="g8agrSDhPhSuaq96xa5Z-56" target="g8agrSDhPhSuaq96xa5Z-62">
          <mxGeometry relative="1" as="geometry" />
        </mxCell>
        <mxCell id="g8agrSDhPhSuaq96xa5Z-82" value="&lt;font style=&quot;font-size: 15px;&quot;&gt;&lt;b&gt;Input Buffer&lt;/b&gt;&lt;/font&gt;" style="text;html=1;align=center;verticalAlign=middle;resizable=0;points=[];autosize=1;strokeColor=none;fillColor=none;" vertex="1" parent="g8agrSDhPhSuaq96xa5Z-67">
          <mxGeometry x="17" y="75" width="110" height="30" as="geometry" />
        </mxCell>
        <mxCell id="g8agrSDhPhSuaq96xa5Z-68" style="edgeStyle=orthogonalEdgeStyle;rounded=0;orthogonalLoop=1;jettySize=auto;html=1;exitX=1;exitY=0.5;exitDx=0;exitDy=0;entryX=0;entryY=0.25;entryDx=0;entryDy=0;" edge="1" parent="1" source="g8agrSDhPhSuaq96xa5Z-39" target="g8agrSDhPhSuaq96xa5Z-4">
          <mxGeometry relative="1" as="geometry" />
        </mxCell>
        <mxCell id="g8agrSDhPhSuaq96xa5Z-69" style="edgeStyle=orthogonalEdgeStyle;rounded=0;orthogonalLoop=1;jettySize=auto;html=1;exitX=1;exitY=0.5;exitDx=0;exitDy=0;entryX=0;entryY=0.75;entryDx=0;entryDy=0;" edge="1" parent="1" source="g8agrSDhPhSuaq96xa5Z-40" target="g8agrSDhPhSuaq96xa5Z-4">
          <mxGeometry relative="1" as="geometry" />
        </mxCell>
        <mxCell id="g8agrSDhPhSuaq96xa5Z-70" value="" style="endArrow=classic;html=1;rounded=0;entryX=0;entryY=0.5;entryDx=0;entryDy=0;" edge="1" parent="1" target="g8agrSDhPhSuaq96xa5Z-39">
          <mxGeometry width="50" height="50" relative="1" as="geometry">
            <mxPoint x="-550" y="-90" as="sourcePoint" />
            <mxPoint x="-670" y="-100" as="targetPoint" />
          </mxGeometry>
        </mxCell>
        <mxCell id="g8agrSDhPhSuaq96xa5Z-71" value="" style="endArrow=classic;html=1;rounded=0;entryX=0;entryY=0.5;entryDx=0;entryDy=0;" edge="1" parent="1" target="g8agrSDhPhSuaq96xa5Z-40">
          <mxGeometry width="50" height="50" relative="1" as="geometry">
            <mxPoint x="-550" y="50" as="sourcePoint" />
            <mxPoint x="-523" y="50" as="targetPoint" />
          </mxGeometry>
        </mxCell>
        <mxCell id="g8agrSDhPhSuaq96xa5Z-77" value="" style="endArrow=classic;html=1;rounded=0;entryX=0;entryY=0.5;entryDx=0;entryDy=0;" edge="1" parent="1">
          <mxGeometry width="50" height="50" relative="1" as="geometry">
            <mxPoint x="-79" y="-70" as="sourcePoint" />
            <mxPoint x="-39" y="-70" as="targetPoint" />
          </mxGeometry>
        </mxCell>
        <mxCell id="g8agrSDhPhSuaq96xa5Z-78" value="" style="endArrow=classic;html=1;rounded=0;entryX=0;entryY=0.5;entryDx=0;entryDy=0;" edge="1" parent="1">
          <mxGeometry width="50" height="50" relative="1" as="geometry">
            <mxPoint x="-79" y="-40" as="sourcePoint" />
            <mxPoint x="-39" y="-40" as="targetPoint" />
          </mxGeometry>
        </mxCell>
        <mxCell id="g8agrSDhPhSuaq96xa5Z-79" value="" style="endArrow=classic;html=1;rounded=0;entryX=0;entryY=0.5;entryDx=0;entryDy=0;" edge="1" parent="1">
          <mxGeometry width="50" height="50" relative="1" as="geometry">
            <mxPoint x="-79" y="-10" as="sourcePoint" />
            <mxPoint x="-39" y="-10" as="targetPoint" />
          </mxGeometry>
        </mxCell>
        <mxCell id="g8agrSDhPhSuaq96xa5Z-80" value="" style="endArrow=classic;html=1;rounded=0;entryX=0;entryY=0.5;entryDx=0;entryDy=0;" edge="1" parent="1">
          <mxGeometry width="50" height="50" relative="1" as="geometry">
            <mxPoint x="-79" y="20" as="sourcePoint" />
            <mxPoint x="-39" y="20" as="targetPoint" />
          </mxGeometry>
        </mxCell>
        <mxCell id="g8agrSDhPhSuaq96xa5Z-84" value="" style="endArrow=none;html=1;rounded=0;entryX=0;entryY=0.5;entryDx=0;entryDy=0;startArrow=classic;startFill=1;endFill=0;" edge="1" parent="1">
          <mxGeometry width="50" height="50" relative="1" as="geometry">
            <mxPoint x="-112" y="-226" as="sourcePoint" />
            <mxPoint x="-72" y="-226" as="targetPoint" />
          </mxGeometry>
        </mxCell>
        <mxCell id="g8agrSDhPhSuaq96xa5Z-85" value="" style="endArrow=none;html=1;rounded=0;entryX=0;entryY=0.5;entryDx=0;entryDy=0;startArrow=classic;startFill=1;endFill=0;" edge="1" parent="1">
          <mxGeometry width="50" height="50" relative="1" as="geometry">
            <mxPoint x="-112" y="-215" as="sourcePoint" />
            <mxPoint x="-72" y="-215" as="targetPoint" />
          </mxGeometry>
        </mxCell>
        <mxCell id="g8agrSDhPhSuaq96xa5Z-86" value="" style="endArrow=none;html=1;rounded=0;entryX=0;entryY=0.5;entryDx=0;entryDy=0;startArrow=classic;startFill=1;endFill=0;" edge="1" parent="1">
          <mxGeometry width="50" height="50" relative="1" as="geometry">
            <mxPoint x="-112" y="-192" as="sourcePoint" />
            <mxPoint x="-72" y="-192" as="targetPoint" />
          </mxGeometry>
        </mxCell>
        <mxCell id="g8agrSDhPhSuaq96xa5Z-87" value="..." style="text;html=1;align=center;verticalAlign=middle;resizable=0;points=[];autosize=1;strokeColor=none;fillColor=none;rotation=90;" vertex="1" parent="1">
          <mxGeometry x="-107" y="-220" width="30" height="30" as="geometry" />
        </mxCell>
        <mxCell id="g8agrSDhPhSuaq96xa5Z-88" value="&lt;font style=&quot;font-size: 15px;&quot;&gt;&lt;b&gt;Credit-in&lt;/b&gt;&lt;/font&gt;" style="text;html=1;align=center;verticalAlign=middle;resizable=0;points=[];autosize=1;strokeColor=none;fillColor=none;rotation=-90;" vertex="1" parent="1">
          <mxGeometry x="-88" y="-223" width="90" height="30" as="geometry" />
        </mxCell>
        <mxCell id="g8agrSDhPhSuaq96xa5Z-89" value="" style="endArrow=classic;html=1;rounded=0;exitX=0.059;exitY=-0.001;exitDx=0;exitDy=0;exitPerimeter=0;" edge="1" parent="1" source="g8agrSDhPhSuaq96xa5Z-39">
          <mxGeometry width="50" height="50" relative="1" as="geometry">
            <mxPoint x="-600" y="-140" as="sourcePoint" />
            <mxPoint x="-560" y="-160" as="targetPoint" />
            <Array as="points">
              <mxPoint x="-500" y="-160" />
            </Array>
          </mxGeometry>
        </mxCell>
        <mxCell id="g8agrSDhPhSuaq96xa5Z-91" value="&lt;font style=&quot;font-size: 15px;&quot;&gt;&lt;b&gt;Credit-Out&lt;/b&gt;&lt;/font&gt;" style="text;html=1;align=center;verticalAlign=middle;resizable=0;points=[];autosize=1;strokeColor=none;fillColor=none;" vertex="1" parent="1">
          <mxGeometry x="-656" y="-180" width="100" height="30" as="geometry" />
        </mxCell>
      </root>
    </mxGraphModel>
  </diagram>
</mxfile>
